<svg width="96" height="29" viewBox="0 0 96 29" fill="none" xmlns="http://www.w3.org/2000/svg">
<path d="M6.78125 28.25C4.58333 28.25 2.90104 27.5885 1.73438 26.2656C0.578125 24.9323 0 23.0104 0 20.5V7.4375C0 5.08333 0.572917 3.29688 1.71875 2.07812C2.875 0.859375 4.5625 0.25 6.78125 0.25C9 0.25 10.6823 0.859375 11.8281 2.07812C12.9844 3.29688 13.5625 5.08333 13.5625 7.4375V20.5C13.5625 23.0104 12.9792 24.9323 11.8125 26.2656C10.6562 27.5885 8.97917 28.25 6.78125 28.25ZM6.82812 23.1875C7.66146 23.1875 8.07812 22.3802 8.07812 20.7656V7.34375C8.07812 5.98958 7.67188 5.3125 6.85938 5.3125C5.94271 5.3125 5.48438 6.00521 5.48438 7.39062V20.7969C5.48438 21.651 5.58854 22.2656 5.79688 22.6406C6.00521 23.0052 6.34896 23.1875 6.82812 23.1875ZM15.0625 28V23L21.3594 5.5625H15.6719V0.5H27.1562V5.3125L20.75 22.9375H26.8906V28H15.0625ZM36.125 20.0469V16.4219H44.1875V20.0469H36.125ZM53.875 28V0.5H61.3281C63.3281 0.5 64.7812 0.989583 65.6875 1.96875C66.6042 2.9375 67.0625 4.54167 67.0625 6.78125V7.98438C67.0625 9.27604 66.8281 10.3229 66.3594 11.125C65.901 11.9271 65.1979 12.4531 64.25 12.7031C65.4896 13.0156 66.3177 13.75 66.7344 14.9062C67.1615 16.0521 67.375 17.4531 67.375 19.1094C67.375 20.8906 67.2083 22.4479 66.875 23.7812C66.5417 25.1146 65.9375 26.151 65.0625 26.8906C64.1875 27.6302 62.9427 28 61.3281 28H53.875ZM59.25 10.8594H60.375C60.8854 10.8594 61.2135 10.6615 61.3594 10.2656C61.5052 9.86979 61.5781 9.39583 61.5781 8.84375V6.07812C61.5781 5.19271 61.1875 4.75 60.4062 4.75H59.25V10.8594ZM59.7969 23.1562C61.224 23.1562 61.9375 22.4792 61.9375 21.125V17.6875C61.9375 16.9062 61.8177 16.2917 61.5781 15.8438C61.349 15.3854 60.9115 15.1562 60.2656 15.1562H59.25V23.125C59.4792 23.1458 59.6615 23.1562 59.7969 23.1562ZM75.75 28.25C73.5521 28.25 71.8698 27.5885 70.7031 26.2656C69.5469 24.9323 68.9688 23.0104 68.9688 20.5V7.4375C68.9688 5.08333 69.5417 3.29688 70.6875 2.07812C71.8438 0.859375 73.5312 0.25 75.75 0.25C77.9688 0.25 79.651 0.859375 80.7969 2.07812C81.9531 3.29688 82.5312 5.08333 82.5312 7.4375V20.5C82.5312 23.0104 81.9479 24.9323 80.7812 26.2656C79.625 27.5885 77.9479 28.25 75.75 28.25ZM75.7969 23.1875C76.6302 23.1875 77.0469 22.3802 77.0469 20.7656V7.34375C77.0469 5.98958 76.6406 5.3125 75.8281 5.3125C74.9115 5.3125 74.4531 6.00521 74.4531 7.39062V20.7969C74.4531 21.651 74.5573 22.2656 74.7656 22.6406C74.974 23.0052 75.3177 23.1875 75.7969 23.1875ZM87.1094 28V5.78125H83.8438V0.5H95.875V5.78125H92.6094V28H87.1094Z" fill="white" fill-opacity="0.2"/>
</svg>
